<svg id="Capa_1" enable-background="new 0 0 512.002 512.002" height="512" viewBox="0 0 512.002 512.002" width="512" xmlns="http://www.w3.org/2000/svg"><g><path d="m135.764 137.344c-4.841 0-8.766 3.925-8.766 8.766s3.924 8.765 8.766 8.765c4.841 0 8.765-3.925 8.765-8.765 0-4.842-3.924-8.766-8.765-8.766z"/><path d="m135.764 222.475c-4.841 0-8.766 3.924-8.766 8.765s3.924 8.765 8.766 8.765c4.841 0 8.765-3.924 8.765-8.765s-3.924-8.765-8.765-8.765z"/><path d="m376.239 137.344c-4.841 0-8.765 3.925-8.765 8.766s3.925 8.765 8.765 8.765c4.841 0 8.766-3.925 8.766-8.765-.001-4.842-3.925-8.766-8.766-8.766z"/><path d="m376.239 222.475c-4.841 0-8.765 3.924-8.765 8.765s3.925 8.765 8.765 8.765c4.841 0 8.766-3.924 8.766-8.765s-3.925-8.765-8.766-8.765z"/><path d="m453.845 147.789v-2.285c0-11.475-9.335-20.81-20.81-20.81h-28.529c-6.261-8.973-15.297-15.864-25.857-19.429-1.114-23.359-10.347-45.483-26.288-62.745-15.708-17.011-36.62-27.912-59.349-31.075-2.934-6.727-9.641-11.445-17.438-11.445h-39.146c-7.842 0-14.587 4.771-17.494 11.561-22.549 3.325-43.27 14.285-58.807 31.241-15.718 17.153-24.845 39.077-26.009 62.204-10.889 3.486-20.208 10.499-26.621 19.688h-28.53c-11.475 0-20.81 9.335-20.81 20.81v2.285c-18.694 2.735-33.097 18.87-33.097 38.312s14.402 35.577 33.097 38.312v2.285c0 11.474 9.335 20.809 20.81 20.809h25.388c2.578 4.795 5.898 9.129 9.797 12.867v24.344c0 9.811-2.809 19.355-8.122 27.604l-31.261 48.533c-2.68 4.159-2.176 9.574 1.227 13.169 7.71 8.142 16.395 15.384 25.812 21.524 1.265.824 2.686 1.218 4.09 1.218 2.45 0 4.852-1.199 6.289-3.405 2.263-3.47 1.284-8.116-2.186-10.379-7.497-4.887-14.473-10.553-20.776-16.87l29.416-45.669c6.877-10.675 10.512-23.029 10.512-35.727v-14.311c5.122 2.248 10.676 3.682 16.5 4.148v5.125c0 40.358 21.782 75.718 54.203 94.96v29.195h-4.365c-.031 0-.062 0-.094 0h-15.261c-14.612 0-29.021-2.478-42.828-7.363-3.904-1.384-8.19.663-9.572 4.568s.663 8.19 4.568 9.572c9.165 3.243 18.57 5.528 28.118 6.855l-32.763 13.344c-20.248 8.247-33.332 27.703-33.332 49.566v24.125c0 4.142 3.357 7.5 7.5 7.5s7.5-3.358 7.5-7.5v-24.125c0-15.736 9.417-29.739 23.99-35.675l63.51-25.868h5.004c6.207 21.956 26.41 38.096 50.326 38.096h8.433c23.916 0 44.119-16.141 50.326-38.096h4.259l63.51 25.868c14.573 5.936 23.99 19.939 23.99 35.675v24.125c0 4.142 3.357 7.5 7.5 7.5s7.5-3.358 7.5-7.5v-24.125c0-21.863-13.084-41.319-33.332-49.566l-32.8-13.36c32.025-4.479 62.045-19.751 84.461-43.428 3.404-3.593 3.91-9.009 1.229-13.17l-31.262-48.533c-5.313-8.249-8.121-17.794-8.121-27.604v-24.344c3.899-3.738 7.219-8.072 9.797-12.867h25.388c11.475 0 20.81-9.335 20.81-20.809v-2.285c18.695-2.735 33.097-18.87 33.097-38.311s-14.402-35.575-33.097-38.309zm-395.688 61.356c-10.373-2.534-18.097-11.902-18.097-23.045s7.723-20.511 18.097-23.045zm236.44-182.259c17.878 3.293 34.247 12.276 46.744 25.81 12.762 13.82 20.455 31.313 22.088 49.894-.41-.01-.818-.031-1.23-.031h-52.401v-18.115c0-9.18-6.537-16.863-15.2-18.637v-38.921zm-62.191-7.863c0-2.218 1.805-4.023 4.022-4.023h39.146c2.218 0 4.022 1.805 4.022 4.023v46.398h-47.191v-46.398zm-11.178 61.398h3.678 62.191 3.678c2.218 0 4.022 1.805 4.022 4.023v18.115h-77.592v-18.115c0-2.218 1.805-4.023 4.023-4.023zm-50.043-27.484c12.341-13.467 28.524-22.481 46.221-25.906v38.778c-8.664 1.774-15.2 9.456-15.2 18.637v18.115h-52.401c-.163 0-.322.011-.484.012 1.627-18.462 9.242-35.861 21.864-49.636zm-57.949 170.23v-10.346c0-4.142-3.357-7.5-7.5-7.5s-7.5 3.358-7.5 7.5v10.346c0 3.189.306 6.307.863 9.338h-20.132c-3.203 0-5.81-2.606-5.81-5.809v-81.192c0-3.204 2.606-5.81 5.81-5.81h21.339c-1.339 4.583-2.07 9.423-2.07 14.433v26.731c0 4.142 3.357 7.5 7.5 7.5s7.5-3.358 7.5-7.5v-26.731c0-20.164 16.404-36.568 36.568-36.568h59.901 38.796v15h-62.514c-14.291 0-25.918 11.627-25.918 25.918s11.627 25.918 25.918 25.918h62.514v24.888h-11.231c-10.953 0-19.864 8.911-19.864 19.865v30.456c-.678.078-1.36.131-2.045.131h-65.557c-20.164 0-36.568-16.404-36.568-36.568zm161.497 1.117c2.683 0 4.864 2.182 4.864 4.865v22.171l-4.555-3.556c-11.211-8.751-26.871-8.751-38.082 0l-4.555 3.556v-22.171c0-2.683 2.182-4.865 4.864-4.865zm23.16 180.344c0 20.568-16.734 37.302-37.303 37.302h-8.433c-20.568 0-37.303-16.734-37.303-37.302v-22.564c12.722 5.131 26.609 7.963 41.146 7.963 14.822 0 28.967-2.945 41.892-8.268v22.869zm-41.892-29.601c-52.576 0-95.35-42.773-95.35-95.349v-4.943h54.709c7.367 0 14.623-2.497 20.433-7.031l10.397-8.117c5.777-4.509 13.846-4.509 19.621 0l10.398 8.117c5.809 4.534 13.064 7.031 20.432 7.031h54.709v4.943c.001 52.575-42.773 95.349-95.349 95.349zm166.778-8.916c-23.973 24.013-56.914 37.723-90.912 37.723h-15.289c-.017 0-.034 0-.051 0h-3.634v-29.636c32.01-19.339 53.458-54.47 53.458-94.519v-5.125c5.824-.467 11.378-1.9 16.5-4.148v14.311c0 12.697 3.635 25.051 10.511 35.727zm-24.012-142.944c0 20.164-16.404 36.568-36.568 36.568h-65.557c-.685 0-1.367-.054-2.045-.131v-30.456c0-10.954-8.911-19.865-19.864-19.865h-11.231v-24.888h13.369c4.143 0 7.5-3.358 7.5-7.5s-3.357-7.5-7.5-7.5h-90.883c-6.021 0-10.918-4.898-10.918-10.918s4.897-10.918 10.918-10.918h140.027c6.021 0 10.918 4.898 10.918 10.918s-4.897 10.918-10.918 10.918h-17.183c-4.143 0-7.5 3.358-7.5 7.5s3.357 7.5 7.5 7.5h17.183c14.291 0 25.918-11.627 25.918-25.918s-11.627-25.918-25.918-25.918h-62.514v-15h38.796 59.901c20.164 0 36.568 16.404 36.568 36.568v69.04zm40.078 3.529c0 3.203-2.606 5.809-5.81 5.809h-20.132c.557-3.031.863-6.148.863-9.338v-69.041c0-5.01-.732-9.849-2.07-14.433h21.339c3.203 0 5.81 2.606 5.81 5.81zm15-17.551v-46.089c10.373 2.534 18.097 11.902 18.097 23.045s-7.724 20.51-18.097 23.044z"/><path d="m289.119 325.618c-22.84 13.099-43.707 13.166-63.787.205-3.48-2.247-8.123-1.246-10.369 2.234s-1.246 8.123 2.234 10.369c12.502 8.069 25.457 12.103 38.779 12.103 13.207 0 26.775-3.967 40.605-11.898 3.593-2.061 4.835-6.644 2.774-10.237-2.058-3.595-6.642-4.836-10.236-2.776z"/><path d="m256.001 308.949c11.842 0 21.477-9.634 21.477-21.477 0-4.142-3.357-7.5-7.5-7.5s-7.5 3.358-7.5 7.5c0 3.571-2.905 6.477-6.477 6.477s-6.477-2.905-6.477-6.477c0-4.142-3.357-7.5-7.5-7.5s-7.5 3.358-7.5 7.5c.001 11.843 9.635 21.477 21.477 21.477z"/></g></svg>